<?xml version="1.0" encoding="UTF-8"?> <!-- Generator: Adobe Illustrator 24.0.1, SVG Export Plug-In . SVG Version: 6.00 Build 0) --> <svg xmlns="http://www.w3.org/2000/svg" xmlns:xlink="http://www.w3.org/1999/xlink" id="Layer_1" x="0px" y="0px" viewBox="0 0 1154 1141" style="enable-background:new 0 0 1154 1141;" xml:space="preserve"> <style type="text/css"> .st0{fill:#003E7E;} </style> <g> <g> <path d="M-1072-913c11.1,0,21.8,4.1,30.1,11.5l4.8,4.2c11.2,10,25.7,15.5,40.7,15.5c4.1,0,8.3-0.4,12.4-1.3l6.2-1.3 c3-0.6,6.1-0.9,9.2-0.9c19.5,0,36.8,12.5,43,31.1l2,6c6.1,18.3,20.6,32.8,38.9,38.9l6,2c21.8,7.2,34.8,29.7,30.1,52.2l-1.3,6.2 c-3.9,18.9,1.4,38.7,14.2,53.1l4.2,4.8c15.3,17.2,15.3,43.1,0,60.2l-4.2,4.8c-12.8,14.4-18.1,34.3-14.2,53.1l1.3,6.2 c4.6,22.5-8.3,44.9-30.1,52.2l-6,2c-18.3,6.1-32.8,20.6-38.9,38.9l-2,6c-6.2,18.6-23.4,31.1-43,31.1c-3.1,0-6.1-0.3-9.2-0.9 l-6.2-1.3c-4.1-0.8-8.2-1.3-12.4-1.3c-15,0-29.5,5.5-40.7,15.5l-4.8,4.2c-8.3,7.4-19,11.5-30.1,11.5s-21.8-4.1-30.1-11.5l-4.8-4.2 c-11.2-10-25.7-15.5-40.7-15.5c-4.1,0-8.3,0.4-12.4,1.3l-6.2,1.3c-3,0.6-6.1,0.9-9.2,0.9c-19.5,0-36.8-12.5-43-31.1l-2-6 c-6.1-18.3-20.6-32.8-38.9-38.9l-6-2c-21.8-7.2-34.8-29.7-30.1-52.2l1.3-6.2c3.9-18.9-1.4-38.7-14.2-53.1l-4.2-4.8 c-15.3-17.2-15.3-43.1,0-60.2l4.2-4.8c12.8-14.4,18.1-34.3,14.2-53.1l-1.3-6.2c-4.6-22.5,8.3-44.9,30.1-52.2l6-2 c18.3-6.1,32.8-20.6,38.9-38.9l2-6c6.2-18.6,23.4-31.1,43-31.1c3.1,0,6.1,0.3,9.2,0.9l6.2,1.3c4.1,0.8,8.2,1.3,12.4,1.3 c15,0,29.5-5.5,40.7-15.5l4.8-4.2C-1093.8-909-1083.1-913-1072-913 M-1072-921c-12.7,0-25.3,4.5-35.4,13.5l-4.8,4.2 c-9.9,8.8-22.5,13.5-35.4,13.5c-3.6,0-7.2-0.4-10.8-1.1l-6.2-1.3c-3.6-0.7-7.2-1.1-10.8-1.1c-22.6,0-43.2,14.4-50.6,36.5l-2,6 c-5.3,16-17.8,28.5-33.8,33.8l-6,2c-25.7,8.5-40.9,34.9-35.4,61.4l1.3,6.2c3.4,16.5-1.2,33.6-12.4,46.2l-4.2,4.8 c-18,20.2-18,50.7,0,70.9l4.2,4.8c11.2,12.6,15.8,29.7,12.4,46.2l-1.3,6.2c-5.5,26.5,9.8,52.9,35.4,61.4l6,2 c16,5.3,28.5,17.8,33.8,33.8l2,6c7.4,22.2,28,36.5,50.6,36.5c3.6,0,7.2-0.4,10.8-1.1l6.2-1.3c3.6-0.7,7.2-1.1,10.8-1.1 c12.9,0,25.6,4.7,35.4,13.5l4.8,4.2c10.1,9,22.8,13.5,35.4,13.5s25.3-4.5,35.4-13.5l4.8-4.2c9.9-8.8,22.5-13.5,35.4-13.5 c3.6,0,7.2,0.4,10.8,1.1l6.2,1.3c3.6,0.7,7.2,1.1,10.8,1.1c22.6,0,43.2-14.4,50.6-36.5l2-6c5.3-16,17.8-28.5,33.8-33.8l6-2 c25.7-8.5,40.9-34.9,35.4-61.4l-1.3-6.2c-3.4-16.5,1.2-33.6,12.4-46.2l4.2-4.8c18-20.2,18-50.7,0-70.9l-4.2-4.8 c-11.2-12.6-15.8-29.7-12.4-46.2l1.3-6.2c5.5-26.5-9.8-52.9-35.4-61.4l-6-2c-16-5.3-28.5-17.8-33.8-33.8l-2-6 c-7.4-22.2-28-36.5-50.6-36.5c-3.6,0-7.2,0.4-10.8,1.1l-6.2,1.3c-3.6,0.7-7.2,1.1-10.8,1.1c-12.9,0-25.6-4.7-35.4-13.5l-4.8-4.2 C-1046.7-916.6-1059.3-921-1072-921L-1072-921z"></path> </g> </g> <g> <path class="st0" d="M575.4,44.9c21,0,41,6.7,57.9,19.3l60.2,45.1c28,21,61.2,33.1,96.1,35l75.2,4.1c21,1.2,40.6,8.9,56.7,22.4 c16.1,13.5,27.2,31.5,31.9,52l17.1,73.3c8,34,25.6,64.7,51.2,88.6l54.9,51.5c15.3,14.4,25.4,32.9,29,53.7 c3.7,20.7,0.6,41.6-8.9,60.3l-34,67.2c-15.8,31.2-21.9,66-17.8,100.7l9,74.7c2.5,20.9-1.7,41.5-12.2,59.8 c-10.5,18.2-26.3,32.2-45.6,40.5l-69.2,29.6c-32.1,13.7-59.2,36.5-78.4,65.8l-41.2,63c-17.9,27.4-48.1,43.7-80.8,43.7 c-9.5,0-18.9-1.4-28-4.2l-72-21.8c-16.6-5-33.8-7.6-51.2-7.6s-34.6,2.5-51.2,7.6l-72,21.8c-9.1,2.8-18.5,4.2-28,4.2 c-32.7,0-62.9-16.4-80.8-43.7l-41.2-63c-19.1-29.3-46.2-52-78.4-65.8l-69.2-29.6c-19.3-8.3-35.1-22.3-45.6-40.5 c-10.5-18.2-14.8-38.9-12.2-59.8l9-74.7c4.2-34.7-2-69.6-17.8-100.7l-34-67.2c-9.5-18.8-12.6-39.6-8.9-60.3 c3.7-20.7,13.7-39.3,29-53.7l54.9-51.5c25.5-23.9,43.2-54.6,51.2-88.6l17.1-73.3c4.8-20.5,15.8-38.5,31.9-52 c16.1-13.5,35.7-21.3,56.7-22.4l75.2-4.1c34.9-1.9,68.2-14,96.1-35l60.2-45.1C534.4,51.5,554.4,44.9,575.4,44.9 M575.4,4.9 c-28.8,0-57.6,9.1-81.9,27.3l-60.2,45.1c-21.6,16.2-47.4,25.6-74.3,27.1l-75.2,4.1c-60.5,3.3-111.6,46.2-125.4,105.2L141.2,287 c-6.1,26.2-19.9,50.1-39.6,68.5L46.8,407C2.5,448.5-9,514.2,18.3,568.3l34,67.2c12.2,24,17,51.2,13.7,77.9l-9,74.7 c-7.2,60.2,26.1,118,81.9,141.8l69.2,29.6c24.8,10.6,45.9,28.3,60.6,50.9l41.2,63c25.7,39.3,69.1,61.9,114.3,61.9 c13.2,0,26.5-1.9,39.6-5.9l72-21.8c12.9-3.9,26.2-5.9,39.6-5.9s26.7,2,39.6,5.9l72,21.8c13.1,4,26.4,5.9,39.6,5.9 c45.2,0,88.6-22.5,114.3-61.9l41.2-63c14.7-22.6,35.8-40.3,60.6-50.9l69.2-29.6c55.7-23.8,89.1-81.6,81.9-141.8l-9-74.7 c-3.2-26.8,1.6-53.9,13.7-77.9l34-67.2c27.4-54.1,15.8-119.8-28.4-161.2l-54.9-51.5c-19.7-18.4-33.4-42.3-39.6-68.5l-17.1-73.3 c-13.8-59-64.9-101.9-125.4-105.2l-75.2-4.1c-26.9-1.5-52.8-10.9-74.3-27.1l-60.2-45.1C633,14,604.2,4.9,575.4,4.9L575.4,4.9z"></path> </g> <g> <path class="st0" d="M575.4,215.6c47.9,0,94.3,9.4,137.9,27.8c42.2,17.8,80.1,43.4,112.7,76c32.6,32.6,58.1,70.5,76,112.7 c18.5,43.7,27.8,90.1,27.8,137.9S920.4,664.3,902,708c-17.8,42.2-43.4,80.1-76,112.7c-32.6,32.6-70.5,58.1-112.7,76 c-43.7,18.5-90.1,27.8-137.9,27.8s-94.3-9.4-137.9-27.8c-42.2-17.8-80.1-43.4-112.7-76c-32.6-32.6-58.1-70.5-76-112.7 C230.4,664.3,221,617.9,221,570s9.4-94.3,27.8-137.9c17.8-42.2,43.4-80.1,76-112.7s70.5-58.1,112.7-76 C481.1,225,527.5,215.6,575.4,215.6 M575.4,175.6C357.6,175.6,181,352.2,181,570s176.6,394.4,394.4,394.4S969.8,787.8,969.8,570 S793.2,175.6,575.4,175.6L575.4,175.6z"></path> </g> </svg> 