<?xml version="1.0" encoding="UTF-8"?> <!-- Generator: Adobe Illustrator 24.0.1, SVG Export Plug-In . SVG Version: 6.00 Build 0) --> <svg xmlns="http://www.w3.org/2000/svg" xmlns:xlink="http://www.w3.org/1999/xlink" id="Layer_1" x="0px" y="0px" viewBox="0 0 810 774" style="enable-background:new 0 0 810 774;" xml:space="preserve"> <style type="text/css"> .st0{fill:#ACC9E8;} </style> <g> <path class="st0" d="M79.6,106.5c53-64.6,140.8-98.2,263.2-101v175.4c-49,5.5-83,21.8-102,49c-19.1,27.2-28.6,68-28.6,122.4v24.5 h130.6v391.7H0V401.3C0,269.4,26.6,171.1,79.6,106.5z M546.8,106.5c53-64.6,140.8-98.2,263.2-101v175.4c-49,5.5-83,21.8-102,49 c-19.1,27.2-28.6,68-28.6,122.4v24.5H810v391.7H467.2V401.3C467.2,269.4,493.7,171.1,546.8,106.5z"></path> </g> </svg> 