<?xml version="1.0" encoding="UTF-8"?> <!-- Generator: Adobe Illustrator 24.0.1, SVG Export Plug-In . SVG Version: 6.00 Build 0) --> <svg xmlns="http://www.w3.org/2000/svg" xmlns:xlink="http://www.w3.org/1999/xlink" id="Layer_1" x="0px" y="0px" viewBox="0 0 1921 217" style="enable-background:new 0 0 1921 217;" xml:space="preserve"> <style type="text/css"> .st0{fill:#ACC9E8;} </style> <g> <path class="st0" d="M1710,79.8c-151.3-68.5-268.2-37.3-408.5,10.2l-0.1-0.2c-126,38.1-239.3,60.9-356.5,72 c-106.6,10.1-221.2,11.4-383.2,4.4c-66.2-2.8-137.6-13.6-212.3-32c-59.7-14.8-121.7-34.4-184.1-58.5C85.7,45,25.4,14.9-0.1,1.6v2.3 C26,17.4,85.8,47.2,164.6,77.6c62.5,24.1,124.5,43.8,184.4,58.6c74.8,18.5,146.4,29.3,212.7,32.1c67.4,2.9,126.6,4.4,180.4,4.4 c75.7,0,140.7-2.9,203.1-8.8c105.2-9.9,207.3-29.4,318.2-60.8c-4.3,1.5-8.6,2.9-12.9,4.4c-62.4,21.5-140.4,46.2-245.1,66 c-116.3,22-246.9,34.8-399.4,39c-174.3,4.8-330-9-430-21.5C74.7,178.5,8.7,164.7-0.1,162.9v2c10.4,2.2,75.9,15.7,175.7,28.1 c141.7,17.6,266.1,22.4,359.6,22.4c26.1,0,49.8-0.4,70.8-0.9c152.6-4.2,283.4-16.9,399.8-39c104.8-19.9,182.8-44.6,245.3-66.1 c5.7-2,11.4-3.9,17-5.8c79.4-27.3,148.1-50.8,218.4-58.8c77.1-8.7,147.9,3,222.7,36.9c99.8,45.2,170.1,34.4,212.2,16.7v-2.2 C1879.7,113.9,1809.7,125,1710,79.8z"></path> </g> </svg> 