<?xml version="1.0" encoding="UTF-8"?> <!-- Generator: Adobe Illustrator 24.0.1, SVG Export Plug-In . SVG Version: 6.00 Build 0) --> <svg xmlns="http://www.w3.org/2000/svg" xmlns:xlink="http://www.w3.org/1999/xlink" id="Layer_1" x="0px" y="0px" viewBox="0 0 1921 217" style="enable-background:new 0 0 1921 217;" xml:space="preserve"> <style type="text/css"> .st0{fill:none;} .st1{fill:#EAEAEA;} </style> <g> <path class="st0" d="M605.9,212.5c152.5-4.2,283.2-16.9,399.4-39c104.7-19.8,182.6-44.5,245.1-66c4.3-1.5,8.6-3,12.9-4.4 c-110.9,31.4-213,50.8-318.2,60.8c-62.3,5.9-127.4,8.8-203.1,8.8c-53.8,0-113-1.5-180.4-4.4c-66.3-2.8-137.9-13.6-212.7-32.1 c-59.8-14.8-121.9-34.5-184.4-58.6C85.8,47.2,26,17.4-0.1,3.8v159.1c8.8,1.9,74.8,15.6,176,28.2 C275.9,203.5,431.6,217.3,605.9,212.5z"></path> <path class="st1" d="M349,136.2c74.8,18.5,146.4,29.3,212.7,32.1c67.4,2.9,126.6,4.4,180.4,4.4c75.7,0,140.7-2.9,203.1-8.8 c105.2-9.9,207.3-29.4,318.2-60.8c1.4-0.5,2.7-0.9,4.1-1.4c11.5-4,22.9-7.9,34.1-11.6l-0.1-0.2c-126,38.1-239.3,60.9-356.5,72 c-106.6,10.1-221.2,11.4-383.2,4.4c-66.2-2.8-137.6-13.6-212.3-32c-59.7-14.8-121.7-34.4-184.1-58.5C85.7,45,25.4,14.9-0.1,1.6v2.3 C26,17.4,85.8,47.2,164.6,77.6C227.1,101.7,289.1,121.4,349,136.2z"></path> <path class="st1" d="M1710,79.8c-151.3-68.5-268.2-37.3-408.5,10.2l0.5,1.7c-13,3.9-25.9,7.7-38.7,11.3c-4.3,1.5-8.6,2.9-12.9,4.4 c-62.4,21.5-140.4,46.2-245.1,66c-116.3,22-246.9,34.8-399.4,39c-174.3,4.8-330-9-430-21.5C74.7,178.5,8.7,164.7-0.1,162.9v2 c10.4,2.2,75.9,15.7,175.7,28.1c141.7,17.6,266.1,22.4,359.6,22.4c26.1,0,49.8-0.4,70.8-0.9c152.6-4.2,283.4-16.9,399.8-39 c104.8-19.9,182.8-44.6,245.3-66.1c5.7-2,11.4-3.9,17-5.8c79.4-27.3,148.1-50.8,218.4-58.8c77.1-8.7,147.9,3,222.7,36.9 c99.8,45.2,170.1,34.4,212.2,16.7v-2.2C1879.7,113.9,1809.7,125,1710,79.8z"></path> <path class="st1" d="M1263.3,103.1c12.8-3.6,25.6-7.4,38.7-11.3l-0.5-1.7c-11.2,3.8-22.5,7.7-34.1,11.6 C1266.1,102.1,1264.7,102.6,1263.3,103.1z"></path> </g> </svg> 