<?xml version="1.0" encoding="UTF-8"?> <svg xmlns="http://www.w3.org/2000/svg" xmlns:xlink="http://www.w3.org/1999/xlink" id="Group_58" data-name="Group 58" width="257.096" height="40.505" viewBox="0 0 257.096 40.505"><defs><linearGradient id="linear-gradient" x1="0.876" y1="0.487" x2="0.102" y2="0.507" gradientUnits="objectBoundingBox"><stop offset="0" stop-color="#656568"></stop><stop offset="0.136" stop-color="#5d5d60"></stop><stop offset="0.343" stop-color="#48494b"></stop><stop offset="0.594" stop-color="#272829"></stop><stop offset="0.816" stop-color="#040505"></stop></linearGradient><linearGradient id="linear-gradient-2" x1="0.405" y1="0.244" x2="0.926" y2="0.766" gradientUnits="objectBoundingBox"><stop offset="0" stop-color="#aeaeb1"></stop><stop offset="0.637" stop-color="#7c7c7f"></stop><stop offset="1" stop-color="#656568"></stop></linearGradient></defs><g id="Group_55" data-name="Group 55" transform="translate(60.892 13.775)"><path id="Path_91" data-name="Path 91" d="M78.128,45.52c.092,5.449,4.156,7.852,9.175,7.852,4.372,0,8.745-1.97,8.745-6.9a5.826,5.826,0,0,0-4.281-5.6c-1.139-.338-6-1.6-6.342-1.692-1.571-.43-2.616-1.294-2.616-2.833,0-2.215,2.246-2.86,4.032-2.86,2.649,0,4.556,1.044,4.742,3.878h3.847c0-4.587-3.847-7.019-8.435-7.019-3.972,0-8.037,2.063-8.037,6.465,0,2.278,1.108,4.557,4.866,5.573,3.016.831,5.017,1.23,6.557,1.816a2.613,2.613,0,0,1,1.818,2.71c0,1.661-1.263,3.325-4.649,3.325-3.08,0-5.574-1.323-5.574-4.712Z" transform="translate(-78.128 -30.343)" fill="#040505" fill-rule="evenodd"></path><path id="Path_92" data-name="Path 92" d="M111.562,37.005h-3.511V46.24c0,2.463-.985,4.341-3.91,4.341-1.908,0-3.047-1.016-3.047-3.816V37.005h-3.51V47.1c0,4.155,1.786,6.249,5.942,6.249a5.342,5.342,0,0,0,4.526-2.649h.062v2.217h3.449Z" transform="translate(-78.342 -30.416)" fill="#040505" fill-rule="evenodd"></path><path id="Path_93" data-name="Path 93" d="M113.583,52.917h3.51V43.465c0-2.649,1.663-4.126,3.479-4.126,2.125,0,2.8,1.169,2.8,3.356V52.917h3.511v-9.33c0-2.677,1.016-4.248,3.386-4.248,2.739,0,2.893,1.754,2.893,4.279v9.3h3.51V41.926c0-3.88-1.969-5.359-5.327-5.359a5.751,5.751,0,0,0-4.986,2.649,4.507,4.507,0,0,0-4.464-2.649A5.319,5.319,0,0,0,117,39.216h-.092V37h-3.327Z" transform="translate(-78.518 -30.412)" fill="#040505" fill-rule="evenodd"></path><path id="Path_94" data-name="Path 94" d="M139.417,52.917h3.512V43.465c0-2.649,1.662-4.126,3.478-4.126,2.123,0,2.8,1.169,2.8,3.356V52.917h3.509v-9.33c0-2.677,1.016-4.248,3.385-4.248,2.74,0,2.895,1.754,2.895,4.279v9.3h3.511V41.926c0-3.88-1.971-5.359-5.328-5.359a5.749,5.749,0,0,0-4.986,2.649,4.505,4.505,0,0,0-4.464-2.649,5.325,5.325,0,0,0-4.9,2.649h-.091V37h-3.327Z" transform="translate(-78.803 -30.412)" fill="#040505" fill-rule="evenodd"></path><path id="Path_95" data-name="Path 95" d="M165.346,52.854h3.51V36.937h-3.51Zm0-18.658h3.51V30.87h-3.51Z" transform="translate(-79.088 -30.349)" fill="#040505" fill-rule="evenodd"></path><path id="Path_96" data-name="Path 96" d="M170.2,39.567h2.646v9.39c.062,2.649.739,4.066,4.4,4.066.768,0,1.507-.124,2.278-.187V50.128a5.975,5.975,0,0,1-1.478.124c-1.572,0-1.694-.74-1.694-2.189v-8.5h3.172V36.952h-3.172V32.179h-3.51v4.773H170.2Z" transform="translate(-79.142 -30.363)" fill="#040505" fill-rule="evenodd"></path></g><g id="Group_56" data-name="Group 56" transform="translate(160.801 13.702)"><path id="Path_97" data-name="Path 97" d="M179.15,52.848h3.1l2.529-6.8h9.55l2.467,6.8h3.32L191.292,30.27h-3.32Zm10.4-19.858h.063l3.762,10.53h-7.652Z" transform="translate(-179.15 -30.27)" fill="#656568" fill-rule="evenodd"></path><path id="Path_98" data-name="Path 98" d="M212.258,36.567h-2.814L204.987,50.2h-.065l-4.585-13.63h-3l6.07,16.35h2.877Z" transform="translate(-179.35 -30.339)" fill="#656568" fill-rule="evenodd"></path><path id="Path_99" data-name="Path 99" d="M213.8,52.848h2.689V36.5H213.8Zm2.689-22.578H213.8v3.288h2.689Z" transform="translate(-179.532 -30.27)" fill="#656568" fill-rule="evenodd"></path><path id="Path_100" data-name="Path 100" d="M228.6,47.22c0,1.485-1.455,3.7-5,3.7-1.645,0-3.163-.631-3.163-2.4,0-1.992,1.518-2.624,3.287-2.94,1.8-.316,3.828-.347,4.871-1.107Zm4.363,3.541a2.284,2.284,0,0,1-.823.158c-.854,0-.854-.568-.854-1.833v-8.41c0-3.827-3.191-4.491-6.132-4.491-3.636,0-6.767,1.423-6.925,5.47h2.688c.125-2.4,1.8-3.1,4.079-3.1,1.708,0,3.636.379,3.636,2.72,0,2.024-2.531,1.834-5.5,2.4-2.783.539-5.534,1.329-5.534,5.026,0,3.257,2.435,4.586,5.407,4.586a7.252,7.252,0,0,0,5.755-2.531c0,1.771.885,2.531,2.278,2.531a3.613,3.613,0,0,0,1.928-.442Z" transform="translate(-179.573 -30.335)" fill="#656568" fill-rule="evenodd"></path><path id="Path_101" data-name="Path 101" d="M237.121,31.612h-2.688v4.9h-2.781v2.373h2.781v10.4c0,3,1.107,3.573,3.89,3.573h2.056V50.491h-1.234c-1.676,0-2.023-.223-2.023-1.455V38.885h3.258V36.512h-3.258Z" transform="translate(-179.728 -30.285)" fill="#656568" fill-rule="evenodd"></path><path id="Path_102" data-name="Path 102" d="M242.354,52.848h2.688V36.5h-2.688Zm2.688-22.578h-2.688v3.288h2.688Z" transform="translate(-179.846 -30.27)" fill="#656568" fill-rule="evenodd"></path><path id="Path_103" data-name="Path 103" d="M245.828,44.756c0,4.773,2.751,8.536,7.937,8.536s7.938-3.763,7.938-8.536c0-4.806-2.752-8.571-7.938-8.571S245.828,39.949,245.828,44.756Zm2.846,0c0-3.986,2.276-6.2,5.09-6.2s5.09,2.213,5.09,6.2c0,3.95-2.276,6.163-5.09,6.163S248.674,48.706,248.674,44.756Z" transform="translate(-179.884 -30.335)" fill="#656568" fill-rule="evenodd"></path><path id="Path_104" data-name="Path 104" d="M262.833,52.913h2.688V43.68c0-2.94,1.58-5.123,4.837-5.123a3.081,3.081,0,0,1,3.321,3.288V52.913h2.687V42.161c0-3.51-1.329-5.976-5.628-5.976a5.688,5.688,0,0,0-5.312,2.972h-.063V36.563h-2.53Z" transform="translate(-180.072 -30.335)" fill="#656568" fill-rule="evenodd"></path></g><g id="Group_57" data-name="Group 57" transform="translate(0 0)"><path id="Path_105" data-name="Path 105" d="M63,39.014c1.1-2.092,1.569-5.149.373-5.793-.945-.5-2.3,1.405-3.626,3.918C56.072,44.1,46.739,49.906,36.464,49.906c-7.672,0-16.8-3.883-16.8-13.32C19.607,29.664,27.286,19.5,38.423,19.5,27.405,22.1,23.041,30.831,23.052,36.148c0,6.257,7.1,8.9,12.285,8.9A23.445,23.445,0,0,0,57.565,30.639c.878-2.206,1.311-5.256.073-5.806-.983-.439-2.26,1.562-3.407,4.152A22.516,22.516,0,0,1,35.166,42.319a19.889,19.889,0,0,1-1-2.433A18.01,18.01,0,0,1,50.892,16.415a17.886,17.886,0,0,1,17.614,17.94c0,13.117-15.128,22.565-29.333,22.565-10.844.041-23.14-5.828-22.6-18.2,1.832,9.145,10.972,14.428,20.537,14.43,10.415,0,20.388-3.871,25.89-14.135Z" transform="translate(-16.558 -16.415)" fill="#656568" fill-rule="evenodd"></path><path id="Path_106" data-name="Path 106" d="M33.5,34.228a17.83,17.83,0,0,0,.849,5.658,19.89,19.89,0,0,0,1,2.433A22.516,22.516,0,0,0,54.418,28.984c1.147-2.59,2.424-4.591,3.407-4.152.018.008.032.021.049.031l1.231-6.442a17.1,17.1,0,0,0-8.028-2.006A17.735,17.735,0,0,0,33.5,34.228Z" transform="translate(-16.745 -16.415)" fill-rule="evenodd" fill="url(#linear-gradient)"></path><path id="Path_107" data-name="Path 107" d="M35.522,49.915V45.081c-.05,0-.1,0-.15,0-5.187,0-12.285-2.645-12.285-8.9-.011-5.317,4.354-14.046,15.371-16.648C27.32,19.535,19.642,29.7,19.7,36.621,19.7,45.658,28.075,49.6,35.522,49.915Z" transform="translate(-16.593 -16.449)" fill-rule="evenodd" fill="url(#linear-gradient-2)"></path></g></svg> 