<?xml version="1.0" encoding="UTF-8"?> <svg xmlns="http://www.w3.org/2000/svg" xmlns:xlink="http://www.w3.org/1999/xlink" id="Group_54" data-name="Group 54" width="261.635" height="40.505" viewBox="0 0 261.635 40.505"><defs><linearGradient id="linear-gradient" x1="0.876" y1="0.487" x2="0.102" y2="0.507" gradientUnits="objectBoundingBox"><stop offset="0" stop-color="#656568"></stop><stop offset="0.136" stop-color="#5d5d60"></stop><stop offset="0.343" stop-color="#48494b"></stop><stop offset="0.594" stop-color="#272829"></stop><stop offset="0.816" stop-color="#040505"></stop></linearGradient><linearGradient id="linear-gradient-2" x1="0.405" y1="0.244" x2="0.926" y2="0.766" gradientUnits="objectBoundingBox"><stop offset="0" stop-color="#aeaeb1"></stop><stop offset="0.637" stop-color="#7c7c7f"></stop><stop offset="1" stop-color="#656568"></stop></linearGradient></defs><g id="Group_51" data-name="Group 51" transform="translate(62.292 14.241)"><path id="Path_73" data-name="Path 73" d="M84.77,52.548h3.971l4.5-16.811H93.3l4.4,16.811h3.91l6.064-21.982h-3.909l-4.1,16.809H99.61L95.3,30.566H91.359L86.925,47.375h-.062L82.892,30.566H78.981Z" transform="translate(-78.981 -30.566)" fill="#040505" fill-rule="evenodd"></path><path id="Path_74" data-name="Path 74" d="M121.056,45.56c.585-4.773-2.494-9.3-7.514-9.3-4.741,0-7.7,3.881-7.7,8.407,0,4.895,2.8,8.376,7.787,8.376,3.479,0,6.435-1.941,7.2-5.421h-3.324a3.7,3.7,0,0,1-3.881,2.649c-2.923,0-4.28-2.215-4.28-4.712Zm-11.7-2.308a4.1,4.1,0,1,1,8.191,0Z" transform="translate(-79.277 -30.628)" fill="#040505" fill-rule="evenodd"></path><path id="Path_75" data-name="Path 75" d="M121.813,47.5c.061,3.755,3.048,5.544,7.05,5.544,3.294,0,7.113-1.388,7.113-5.176,0-3.139-2.587-4.062-5.142-4.647-2.587-.585-5.172-.833-5.172-2.556,0-1.385,1.876-1.632,2.892-1.632,1.54,0,2.926.464,3.233,2.124h3.665c-.431-3.541-3.386-4.9-6.65-4.9-2.9,0-6.651,1.08-6.651,4.557,0,3.233,2.524,4.156,5.111,4.713,2.556.585,5.11.8,5.2,2.647.092,1.817-2.216,2.094-3.541,2.094-1.878,0-3.416-.74-3.6-2.772Z" transform="translate(-79.452 -30.628)" fill="#040505" fill-rule="evenodd"></path><path id="Path_76" data-name="Path 76" d="M135.969,39.261h2.649v9.392c.062,2.649.739,4.062,4.4,4.062.769,0,1.509-.122,2.278-.183V49.823a5.964,5.964,0,0,1-1.477.124c-1.571,0-1.7-.74-1.7-2.188v-8.5H145.3V36.646h-3.172V31.873h-3.508v4.773h-2.649Z" transform="translate(-79.608 -30.58)" fill="#040505" fill-rule="evenodd"></path><path id="Path_77" data-name="Path 77" d="M161.131,45.56c.585-4.773-2.493-9.3-7.511-9.3-4.743,0-7.7,3.881-7.7,8.407,0,4.895,2.8,8.376,7.788,8.376,3.479,0,6.433-1.941,7.2-5.421h-3.322a3.7,3.7,0,0,1-3.881,2.649c-2.925,0-4.28-2.215-4.28-4.712Zm-11.7-2.308a4.1,4.1,0,1,1,8.19,0Z" transform="translate(-79.717 -30.628)" fill="#040505" fill-rule="evenodd"></path><path id="Path_78" data-name="Path 78" d="M162.449,52.61h3.511V45.035c0-3.508,1.907-5.446,4.31-5.446a12.413,12.413,0,0,1,1.508.154V36.354a8.631,8.631,0,0,0-1.323-.093,5.139,5.139,0,0,0-4.649,3.51h-.061V36.694h-3.3Z" transform="translate(-79.899 -30.628)" fill="#040505" fill-rule="evenodd"></path><path id="Path_79" data-name="Path 79" d="M172.775,52.61h3.512v-9.39a3.881,3.881,0,0,1,3.849-4.187c2.061,0,3.046,1.078,3.106,3.571V52.61h3.512V41.681c0-3.571-2.187-5.42-5.635-5.42a5.7,5.7,0,0,0-4.956,2.834l-.06-.061V36.694h-3.328Z" transform="translate(-80.012 -30.628)" fill="#040505" fill-rule="evenodd"></path></g><g id="Group_52" data-name="Group 52" transform="translate(169.426 13.393)"><path id="Path_80" data-name="Path 80" d="M187.306,52.541h3.1l2.53-6.8h9.547l2.467,6.8h3.32l-8.822-22.577H196.13Zm10.4-19.857h.063l3.763,10.529h-7.654Z" transform="translate(-187.306 -29.712)" fill="#656568" fill-rule="evenodd"></path><path id="Path_81" data-name="Path 81" d="M209.167,52.541h2.687V36.194h-2.687Zm2.687-22.577h-2.687v3.288h2.687Z" transform="translate(-187.546 -29.712)" fill="#656568" fill-rule="evenodd"></path><path id="Path_82" data-name="Path 82" d="M214.72,52.606h2.689V45.335c0-4.143,1.578-6.612,5.91-6.612V35.878c-2.907-.094-4.711,1.2-6.007,3.827h-.063V36.259H214.72Z" transform="translate(-187.607 -29.777)" fill="#656568" fill-rule="evenodd"></path><path id="Path_83" data-name="Path 83" d="M238.042,41.506c-.378-3.888-3.349-5.628-7.05-5.628-5.187,0-7.715,3.86-7.715,8.76,0,4.868,2.656,8.347,7.651,8.347,4.112,0,6.611-2.373,7.209-6.357h-2.748a4.227,4.227,0,0,1-4.491,3.985c-3.413,0-4.775-2.969-4.775-5.975,0-3.32,1.2-6.387,5.091-6.387a3.805,3.805,0,0,1,4.047,3.256Z" transform="translate(-187.701 -29.777)" fill="#656568" fill-rule="evenodd"></path><path id="Path_84" data-name="Path 84" d="M239.958,52.606h2.687V45.335c0-4.143,1.582-6.612,5.913-6.612V35.878c-2.91-.094-4.71,1.2-6.007,3.827h-.062V36.259h-2.531Z" transform="translate(-187.885 -29.777)" fill="#656568" fill-rule="evenodd"></path><path id="Path_85" data-name="Path 85" d="M259.52,46.913c0,1.487-1.457,3.7-5,3.7-1.644,0-3.16-.629-3.16-2.4,0-1.992,1.516-2.624,3.286-2.94,1.8-.316,3.828-.346,4.872-1.107Zm4.362,3.543a2.254,2.254,0,0,1-.821.156c-.853,0-.853-.568-.853-1.833V40.371c0-3.826-3.2-4.493-6.135-4.493-3.636,0-6.765,1.426-6.925,5.472h2.688c.128-2.4,1.8-3.1,4.079-3.1,1.707,0,3.637.381,3.637,2.719,0,2.023-2.53,1.836-5.5,2.4-2.782.537-5.534,1.329-5.534,5.028,0,3.257,2.436,4.584,5.409,4.584a7.256,7.256,0,0,0,5.754-2.529c0,1.769.885,2.529,2.276,2.529a3.625,3.625,0,0,0,1.928-.44Z" transform="translate(-187.979 -29.777)" fill="#656568" fill-rule="evenodd"></path><path id="Path_86" data-name="Path 86" d="M266.381,52.538h2.686V38.564h3.165V36.191h-3.165V33.915c0-1.423.76-1.835,2.055-1.835a4.947,4.947,0,0,1,1.519.223V29.961a6.681,6.681,0,0,0-1.739-.252c-2.94,0-4.522,1.393-4.522,4.048v2.434h-2.753v2.373h2.753Z" transform="translate(-188.145 -29.709)" fill="#656568" fill-rule="evenodd"></path><path id="Path_87" data-name="Path 87" d="M277.185,31.308H274.5v4.9h-2.782v2.373H274.5v10.4c0,3,1.107,3.571,3.89,3.571h2.056V50.184h-1.233c-1.676,0-2.024-.221-2.024-1.455V38.581h3.257V36.209h-3.257Z" transform="translate(-188.233 -29.727)" fill="#656568" fill-rule="evenodd"></path></g><g id="Group_53" data-name="Group 53" transform="translate(0 0)"><path id="Path_88" data-name="Path 88" d="M62.443,38.766c1.106-2.092,1.569-5.148.373-5.793-.945-.5-2.3,1.4-3.626,3.917C55.513,43.847,46.179,49.658,35.9,49.658c-7.671,0-16.8-3.882-16.8-13.319-.054-6.922,7.624-17.086,18.763-17.086C26.844,21.854,22.48,30.584,22.492,35.9c0,6.257,7.1,8.9,12.285,8.9A23.443,23.443,0,0,0,57.005,30.39c.878-2.205,1.312-5.256.074-5.806-.984-.438-2.261,1.562-3.408,4.152A22.516,22.516,0,0,1,34.606,42.07a19.987,19.987,0,0,1-1-2.433,18.012,18.012,0,0,1,16.726-23.47,17.885,17.885,0,0,1,17.615,17.94c0,13.117-15.129,22.565-29.334,22.565-10.845.041-23.142-5.827-22.6-18.2C17.847,47.617,26.988,52.9,36.554,52.9c10.415,0,20.388-3.871,25.889-14.136Z" transform="translate(-15.997 -16.167)" fill="#656568" fill-rule="evenodd"></path><path id="Path_89" data-name="Path 89" d="M32.944,33.979a17.829,17.829,0,0,0,.848,5.658,19.986,19.986,0,0,0,1,2.433A22.516,22.516,0,0,0,53.858,28.735c1.147-2.59,2.424-4.59,3.408-4.152.017.008.032.022.048.032l1.231-6.442a17.1,17.1,0,0,0-8.028-2.006A17.733,17.733,0,0,0,32.944,33.979Z" transform="translate(-16.184 -16.167)" fill-rule="evenodd" fill="url(#linear-gradient)"></path><path id="Path_90" data-name="Path 90" d="M34.961,49.667V44.832c-.05,0-.1,0-.149,0-5.187,0-12.286-2.645-12.286-8.9-.012-5.316,4.353-14.046,15.371-16.647-11.138,0-18.817,10.164-18.763,17.086C19.135,45.41,27.515,49.351,34.961,49.667Z" transform="translate(-16.032 -16.201)" fill-rule="evenodd" fill="url(#linear-gradient-2)"></path></g></svg> 