<?xml version="1.0" encoding="UTF-8"?> <!-- Generator: Adobe Illustrator 24.0.1, SVG Export Plug-In . SVG Version: 6.00 Build 0) --> <svg xmlns="http://www.w3.org/2000/svg" xmlns:xlink="http://www.w3.org/1999/xlink" id="Layer_1" x="0px" y="0px" viewBox="0 0 1200 1200" style="enable-background:new 0 0 1200 1200;" xml:space="preserve"> <style type="text/css"> .st0{fill:#003E7E;} </style> <path class="st0" d="M1187.4,166.8c-3.6-16.9-9.8-34.8-17.5-50.3c-13.7-27.7-30.8-50-50.9-66.4c-33.1-27-79.3-42.8-123.6-42.1 c-53,0.8-88.8,29.3-123.5,56.8c-0.3,0.3-0.6,0.5-1,0.8H328.9c-2-1.6-4-3.2-6.1-4.9c-13.8-11-28-22.3-44.2-31.9 C247.8,10.8,215,4.6,178.3,9.9c-35.6,5.2-66.5,17.3-91.7,36c-31.2,23.1-49.7,55-59.7,77.6C13.7,153,6.2,188.5,5.6,223.3 c-0.5,33.9,5,68.9,16.4,104.3c9,27.9,21.8,56.3,38.1,84.4c17.9,30.9,37.4,58.6,58,82.1c24.4,27.9,51.3,53.5,79.9,76.1 c24.2,19.2,49.6,37.2,74.1,54.6c18.5,13.1,37.7,26.7,55.9,40.5l3.7,2.8c11.1,8.4,22.5,17.1,33.9,25.6c6.2,4.6,12.2,9.4,18.6,14.5 l0.2,0.2c29.2,28.5,63.1,50.5,100,65.4c22.5,11.4,37.3,34.8,37.6,60.3c0.3,26.6-15.1,51.2-38.9,62.7H379.2 c-14.7,0-28.5,5.6-38.8,15.7c0,0,0,0,0,0c0,0,0,0,0,0l-74,72.5c0,0,0,0,0,0c-11,10.8-17,24.8-17,39.7V1136 c0,30.8,25.1,55.9,55.9,55.9h589.4c30.8,0,55.9-25.1,55.9-55.9v-111.2c0-14.8-6-28.9-17-39.7c0,0,0,0,0,0l-74-72.5c0,0,0,0,0,0 c0,0,0,0,0,0c-10.3-10.1-24.1-15.7-38.8-15.7H716.3c-23.8-11.5-39.2-36.1-38.9-62.7c0.4-28.3,18.4-53.8,45-63.5 c1.5-0.6,2.9-1.3,4.3-2c32.1-14.5,61.2-34.3,86.4-58.3c0.8-0.5,1.6-1.1,2.3-1.7l3.7-3c4.1-3.3,8.1-6.5,12-9.5c29-22.1,59-43.9,88-65 c20.8-15.1,42.2-30.7,63.3-46.4c86.5-64.4,148.5-141,184.4-227.6c10.7-25.8,18.7-54,23.9-83.8C1196.5,240,1195.4,204.2,1187.4,166.8 z M852.8,487.6c0,139.3-113.6,252.6-253.3,252.6c-34.7,0-67.8-7.1-97.9-19.8c-0.3-0.1-0.6-0.3-0.9-0.4 c-90.2-38.6-153.5-128.2-153.5-232.4V121.4h505.6V487.6z M232.6,526.6c-25.9-20.5-50.3-43.8-72.5-69.2 c-18.3-20.9-35.7-45.5-51.7-73.3c-14.3-24.7-25.5-49.5-33.3-73.7C65.6,281,61,251.9,61.4,224.2c0.4-27.5,6.2-55.2,16.4-78.1 c10.4-23.3,25.3-43,42-55.4c17.7-13.1,40.1-21.8,66.5-25.6c24.3-3.5,44.1,0.1,64,11.9c12.8,7.5,24.9,17.2,37.7,27.4 c1.1,0.9,2.3,1.8,3.4,2.7v380.5c0,31.9,4.8,63,14.1,92.6c-0.4-0.3-0.7-0.5-1.1-0.8C280.5,562.5,255.7,544.9,232.6,526.6z M710,952.6 c0.2,0,0.3,0,0.5,0c0.2,0,0.4,0,0.6,0h109.6c0,0,0,0,0.1,0l73.7,72.3c0,0,0,0,0,0c0,0,0,0,0,0c0.1,0.1,0.2,0.2,0.3,0.3V1136 c0,0.1,0,0.2,0,0.2c0,0-0.1,0-0.2,0H305.3c-0.1,0-0.2,0-0.2,0c0,0,0-0.1,0-0.2v-110.8c0.1-0.1,0.2-0.2,0.3-0.3c0,0,0,0,0,0 c0,0,0,0,0,0l73.7-72.3c0,0,0,0,0.1,0h109.1c0.2,0,0.4,0,0.6,0c0.2,0,0.3,0,0.5,0H710z M638.3,896.9h-77.1 c10.9-18.9,16.9-40.8,16.6-63.4c-0.2-13.4-2.6-26.5-6.8-38.8c9.4,0.9,19,1.3,28.6,1.3c9.8,0,19.5-0.5,29.1-1.4 c-4.3,12.3-6.7,25.5-6.9,38.9C621.4,856.1,627.4,877.9,638.3,896.9z M1135.8,263.7c-4.5,25.8-11.4,50-20.5,72 c-32,77.2-87.9,146-166.2,204.3c-18.1,13.5-36.7,27-54.9,40.3c9.3-29.3,14.3-60.4,14.3-92.7V107c29.1-23.1,54.5-42.7,87.8-43.2 c31.1-0.5,64.6,10.8,87.5,29.5c13.8,11.3,26,27.5,36.2,48c5.7,11.4,10.3,24.6,12.9,37.2C1139.3,208.4,1140.3,237.9,1135.8,263.7z"></path> </svg> 