<?xml version="1.0" encoding="UTF-8"?> <!-- Generator: Adobe Illustrator 24.0.1, SVG Export Plug-In . SVG Version: 6.00 Build 0) --> <svg xmlns="http://www.w3.org/2000/svg" xmlns:xlink="http://www.w3.org/1999/xlink" id="Layer_1" x="0px" y="0px" viewBox="0 0 924 1200" style="enable-background:new 0 0 924 1200;" xml:space="preserve"> <style type="text/css"> .st0{fill:#003E7E;} </style> <g> <path class="st0" d="M535.9,800.5l48.7,21.8c0,0,0,0,0,0c0,0,0,0,0,0c6.5,2.9,13.5,4.4,20.4,4.4c6.6,0,13.2-1.3,19.5-3.9 c13.1-5.4,23.4-15.9,28.4-28.9c0.1-0.3,0.2-0.5,0.2-0.8l18.8-48.8l53.5,1.2c0.1,0,0.3,0,0.4,0c0.3,0,0.5,0,0.8,0 c13.5,0,26.2-5.3,36-15c9.9-9.9,15.3-23.6,15-37.6c0,0,0,0,0-0.1l-1.2-53.1l49.5-19.1c0,0,0,0,0,0c0,0,0,0,0,0l0,0c0,0,0,0,0,0 c13-5,23.5-15.4,28.9-28.4c5.4-13,5.2-27.7-0.4-40.4c0,0,0,0,0,0l-21.5-48.4l38.3-36.7c0,0,0-0.1,0.1-0.1 c10-9.6,15.8-23.2,15.8-37.2c0-14-5.6-27-15.8-36.7c0,0,0,0-0.1-0.1l-38.3-36.8l21.5-48.8c0,0,0,0,0,0c0,0,0,0,0,0l0-0.1 c0,0,0,0,0-0.1c5.6-12.8,5.8-27.7,0.4-40.7c-5.3-12.8-15.6-22.7-28.9-27.9c0,0,0,0,0,0l-49.5-19.1l1.2-53.1c0,0,0,0,0-0.1 c0.3-14-5.2-27.7-15-37.6c-10-10-23.2-15.4-37.2-15c0,0,0,0-0.1,0c0,0,0,0-0.1,0l-53.3,1.6L653,65.2c0,0,0,0,0,0c0,0,0,0,0,0 c-5-13-15.4-23.6-28.4-28.9c-12.6-5.2-26.7-4.9-39.8,0.8c0,0,0,0-0.1,0L536,58.6l-36.7-38.7c0,0,0,0,0,0c0,0,0,0,0,0 c-9.9-10.4-23.5-16.4-37.4-16.4c-13.7,0-26.8,5.8-36.9,16.4c0,0,0,0,0,0c0,0,0,0,0,0l-36.7,38.7l-48.8-21.5c0,0,0,0-0.1,0 c-13.2-5.8-27.5-6.1-40.2-0.8c-12.8,5.3-22.8,15.6-27.9,28.9c0,0,0,0,0,0c0,0,0,0,0,0l-19.1,49.8l-53.3-1.6c0,0,0,0-0.1,0 c0,0,0,0-0.1,0c-14.1-0.3-27.8,5.1-37.7,15c-9.7,9.7-14.9,23.1-14.6,37.6c0,0,0,0,0,0.1l1.2,53.1L98,238.3c0,0,0,0,0,0 c-13.7,5.3-24.1,15.2-29.4,27.9c-5.3,12.7-5,27.6,0.8,40.7c0,0,0,0,0,0.1l0,0.1c0,0,0,0,0,0v0L91,355.9l-38.3,36.8c0,0,0,0-0.1,0.1 c-10.5,10-16.3,23.1-16.3,36.8c0,13.8,5.9,27.3,16.3,37.2c0,0,0,0,0.1,0.1L91,503.5l-21.5,48.4c0,0,0,0,0,0c0,0,0,0,0,0l0,0v0 c-5.9,13.3-6.2,27.6-0.9,40.4c5.3,12.9,16.1,23.2,29.4,28.4l0,0l0,0c0,0,0,0,0,0c0,0,0,0,0,0l49.5,19.1l-1.2,53.1c0,0,0,0,0,0.1 c-0.3,14.5,4.8,27.9,14.6,37.6c9.6,9.6,22.8,15,36.5,15c0.3,0,0.5,0,0.8,0c0.1,0,0.2,0,0.4,0l53.5-1.2l19.1,49.5c0,0,0,0,0,0 c5.1,13.3,15.1,23.6,27.9,28.9c6.3,2.6,13.1,3.9,19.8,3.9c7.1,0,14.1-1.4,20.6-4.3c0,0,0,0,0,0c0,0,0,0,0,0l48.7-21.8l36.7,38.6 c0,0,0,0,0,0c0,0,0,0,0,0c9.8,10.3,22.9,15.9,36.9,15.9c14.1,0,27.7-5.8,37.4-15.9c0,0,0,0,0,0c0,0,0,0,0,0L535.9,800.5z M321.7,768.8L300,712.6c-0.1-0.1-0.1-0.3-0.2-0.4c-0.2-0.5-0.4-1-0.7-1.5c-0.2-0.4-0.3-0.7-0.5-1.1c-0.2-0.5-0.5-0.9-0.8-1.3 c-0.2-0.4-0.4-0.7-0.6-1.1c-0.3-0.4-0.5-0.8-0.8-1.2c-0.3-0.4-0.5-0.7-0.8-1.1c-0.3-0.3-0.6-0.7-0.9-1c-0.3-0.4-0.7-0.7-1-1.1 c-0.3-0.3-0.6-0.6-0.9-0.8c-0.4-0.4-0.8-0.7-1.2-1c-0.3-0.2-0.6-0.5-0.9-0.7c-0.4-0.3-0.9-0.7-1.4-1c-0.1-0.1-0.2-0.2-0.4-0.3 c-3.4-2.2-6.5-4.2-9.3-6.2c-0.1-0.1-0.2-0.1-0.3-0.2c-0.5-0.3-1-0.6-1.4-0.9c-0.3-0.2-0.7-0.4-1-0.6c-0.4-0.2-0.9-0.4-1.4-0.7 c-0.4-0.2-0.8-0.4-1.2-0.5c-0.4-0.2-0.8-0.3-1.2-0.4c-0.5-0.2-1-0.3-1.4-0.5c-0.3-0.1-0.7-0.2-1.1-0.3c-0.6-0.1-1.1-0.3-1.7-0.4 c-0.3-0.1-0.7-0.1-1-0.2c-0.6-0.1-1.2-0.2-1.8-0.2c-0.3,0-0.7,0-1-0.1c-0.6,0-1.2-0.1-1.7-0.1c-0.1,0-0.3,0-0.4,0l-60.6,1.3 l1.3-60.6c0-0.2,0-0.3,0-0.4c0-0.5,0-1.1,0-1.6c0-0.4,0-0.8-0.1-1.2c0-0.5-0.1-1-0.2-1.5c-0.1-0.4-0.1-0.8-0.2-1.2 c-0.1-0.5-0.2-0.9-0.3-1.4c-0.1-0.4-0.2-0.9-0.3-1.3c-0.1-0.4-0.3-0.8-0.4-1.2c-0.2-0.5-0.3-0.9-0.5-1.4c-0.2-0.4-0.3-0.7-0.5-1.1 c-0.2-0.5-0.4-1-0.7-1.4c-0.2-0.3-0.4-0.7-0.6-1c-0.3-0.5-0.6-0.9-0.9-1.4c-0.1-0.1-0.1-0.3-0.2-0.4c-1.4-2-2.8-4.2-4.2-6.4 c-0.6-0.9-1.2-1.9-1.8-2.8c-3.7-5.8-9.2-9.7-15.2-11.6l-54.8-21.2l24.4-55c0.1-0.1,0.1-0.3,0.2-0.4c0.2-0.5,0.4-1,0.6-1.5 c0.1-0.4,0.3-0.7,0.4-1.1c0.2-0.5,0.3-1,0.4-1.5c0.1-0.4,0.2-0.8,0.3-1.2c0.1-0.5,0.2-1,0.2-1.4c0.1-0.4,0.1-0.9,0.2-1.3 c0-0.4,0.1-0.9,0.1-1.4c0-0.5,0.1-0.9,0.1-1.4c0-0.4,0-0.8,0-1.3c0-0.5,0-1-0.1-1.5c0-0.4-0.1-0.8-0.2-1.2 c-0.1-0.5-0.2-1.1-0.3-1.6c0-0.2,0-0.3-0.1-0.5c-0.8-3.8-1.6-7.5-2.2-11.1c0-0.1-0.1-0.3-0.1-0.4c-0.1-0.5-0.2-1.1-0.4-1.6 c-0.1-0.4-0.2-0.8-0.3-1.1c-0.1-0.5-0.3-1-0.5-1.5c-0.1-0.4-0.3-0.8-0.4-1.2c-0.2-0.4-0.4-0.9-0.6-1.3c-0.2-0.4-0.4-0.8-0.6-1.2 c-0.2-0.4-0.4-0.7-0.6-1.1c-0.3-0.4-0.5-0.9-0.8-1.3c-0.2-0.3-0.4-0.6-0.7-0.9c-0.3-0.4-0.7-0.9-1-1.3c-0.2-0.3-0.5-0.5-0.7-0.8 c-0.4-0.4-0.8-0.9-1.2-1.3c-0.1-0.1-0.2-0.2-0.3-0.3l-43.5-41.7l43.5-41.7c0,0,0.1-0.1,0.1-0.1c0.6-0.6,1.3-1.3,1.8-2 c0.1-0.1,0.1-0.2,0.2-0.2c0.5-0.6,1-1.2,1.4-1.8c0.2-0.2,0.3-0.5,0.5-0.8c0.3-0.5,0.6-0.9,0.9-1.4c0.2-0.3,0.3-0.6,0.5-0.9 c0.2-0.4,0.5-0.9,0.7-1.4c0.2-0.4,0.3-0.7,0.5-1.1c0.2-0.4,0.3-0.9,0.5-1.3c0.1-0.4,0.3-0.8,0.4-1.2c0.1-0.4,0.2-0.9,0.3-1.3 c0.1-0.4,0.2-0.8,0.3-1.3c0-0.2,0.1-0.3,0.1-0.5c0.6-3.5,1.4-7.3,2.2-11.1c0-0.1,0-0.3,0.1-0.4c0.1-0.5,0.2-1.1,0.3-1.6 c0.1-0.4,0.1-0.8,0.2-1.2c0.1-0.5,0.1-1,0.1-1.5c0-0.4,0-0.8,0-1.2c0-0.5,0-1-0.1-1.4c0-0.5,0-0.9-0.1-1.3c0-0.4-0.1-0.9-0.2-1.3 c-0.1-0.5-0.1-1-0.2-1.5c-0.1-0.4-0.2-0.8-0.3-1.2c-0.1-0.5-0.3-1-0.4-1.5c-0.1-0.4-0.2-0.7-0.4-1.1c-0.2-0.5-0.4-1-0.6-1.6 c-0.1-0.1-0.1-0.3-0.2-0.4l-24.4-55.6l56.4-21.7c0.8-0.3,1.7-0.7,2.5-1.1c0.1-0.1,0.2-0.1,0.4-0.2c0.7-0.4,1.5-0.8,2.2-1.2 c0.1-0.1,0.2-0.2,0.4-0.2c0.6-0.4,1.2-0.8,1.8-1.3c0.1-0.1,0.2-0.1,0.3-0.2c0.6-0.5,1.2-1,1.8-1.6c0.2-0.1,0.3-0.3,0.4-0.4 c0.5-0.5,1-1,1.4-1.5c0.1-0.1,0.1-0.2,0.2-0.2c0.5-0.6,1-1.2,1.4-1.8c0.1-0.2,0.3-0.4,0.4-0.6c0.1-0.2,0.3-0.4,0.4-0.5 c2.2-3.4,4.2-6.4,6.2-9.3c0.1-0.1,0.2-0.3,0.2-0.4c0.3-0.5,0.6-0.9,0.9-1.4c0.2-0.3,0.4-0.7,0.6-1c0.2-0.5,0.5-0.9,0.7-1.4 c0.2-0.4,0.3-0.7,0.5-1.1c0.2-0.4,0.3-0.9,0.5-1.4c0.1-0.4,0.3-0.8,0.4-1.2c0.1-0.4,0.2-0.9,0.3-1.3c0.1-0.5,0.2-0.9,0.3-1.4 c0.1-0.4,0.1-0.8,0.2-1.2c0.1-0.5,0.2-1,0.2-1.5c0-0.4,0-0.8,0.1-1.2c0-0.5,0-1.1,0-1.6c0-0.2,0-0.3,0-0.4l-1.3-60.5l60.4,1.8 c0.2,0,0.5,0,0.7,0c0,0,0.1,0,0.2,0c0.8,0,1.7-0.1,2.5-0.1c0.2,0,0.4,0,0.7-0.1c0.6-0.1,1.3-0.2,1.9-0.3c0.2,0,0.5-0.1,0.7-0.1 c0.7-0.2,1.4-0.3,2.2-0.5c0.1,0,0.2,0,0.2-0.1c0.8-0.2,1.5-0.5,2.3-0.8c0.2-0.1,0.5-0.2,0.7-0.3c0.5-0.2,1-0.4,1.5-0.7 c0.3-0.1,0.6-0.3,0.8-0.5c0.4-0.2,0.9-0.5,1.3-0.8c0.3-0.2,0.5-0.3,0.8-0.5c0.1-0.1,0.2-0.1,0.3-0.2c2.8-1.9,5.8-4,9.3-6.2 c0.1,0,0.1-0.1,0.2-0.1c0.7-0.5,1.4-1,2.1-1.5c0,0,0.1-0.1,0.1-0.1c0.6-0.5,1.2-1,1.8-1.6c0.2-0.2,0.4-0.3,0.5-0.5 c0.4-0.4,0.9-0.9,1.3-1.4c0.2-0.2,0.3-0.4,0.5-0.6c0.5-0.6,1-1.3,1.5-1.9c0-0.1,0.1-0.1,0.1-0.2c0.4-0.6,0.8-1.3,1.2-2 c0.1-0.3,0.3-0.5,0.4-0.8c0.2-0.5,0.5-0.9,0.7-1.4c0.1-0.3,0.3-0.6,0.4-0.9c0.1-0.2,0.2-0.4,0.2-0.6l21.5-56.2l55.1,24.2 c0,0,0,0,0,0l0.2,0.1c0.1,0,0.2,0.1,0.3,0.1c0.7,0.3,1.4,0.6,2.1,0.8c0.3,0.1,0.5,0.2,0.8,0.2c0.6,0.2,1.2,0.3,1.8,0.5 c0.3,0.1,0.6,0.1,0.9,0.2c0.6,0.1,1.2,0.2,1.8,0.3c0.3,0,0.5,0.1,0.8,0.1c0.8,0.1,1.7,0.1,2.5,0.1c0,0,0.1,0,0.1,0 c0.9,0,1.8-0.1,2.7-0.1c0.2,0,0.4,0,0.6-0.1c0.9-0.1,1.9-0.3,2.8-0.5c3.9-0.8,7.6-1.6,11-2.2c0.1,0,0.2,0,0.2-0.1 c0.6-0.1,1.1-0.2,1.6-0.4c0.4-0.1,0.7-0.2,1.1-0.3c0.5-0.1,1-0.3,1.5-0.5c0.4-0.1,0.8-0.3,1.2-0.4c0.4-0.2,0.8-0.4,1.3-0.6 c0.4-0.2,0.9-0.4,1.3-0.6c0.4-0.2,0.7-0.4,1.1-0.6c0.5-0.3,0.9-0.5,1.3-0.8c0.3-0.2,0.6-0.5,0.9-0.7c0.5-0.3,0.9-0.7,1.3-1 c0.3-0.2,0.6-0.5,0.8-0.7c0.4-0.4,0.9-0.8,1.3-1.2c0.1-0.1,0.2-0.2,0.3-0.3l41.6-43.8l41.6,43.8c0.1,0.1,0.2,0.2,0.3,0.3 c0.4,0.4,0.8,0.8,1.3,1.2c0.3,0.2,0.5,0.5,0.8,0.7c0.4,0.4,0.9,0.7,1.4,1c0.3,0.2,0.6,0.5,0.9,0.7c0.4,0.3,0.9,0.6,1.4,0.8 c0.3,0.2,0.7,0.4,1.1,0.6c0.4,0.2,0.9,0.4,1.3,0.6c0.4,0.2,0.8,0.4,1.2,0.6c0.4,0.2,0.8,0.3,1.2,0.4c0.5,0.2,1,0.4,1.4,0.5 c0.4,0.1,0.8,0.2,1.1,0.3c0.5,0.1,1.1,0.3,1.6,0.4c0.1,0,0.2,0,0.2,0.1c3.3,0.6,6.9,1.3,11,2.2c0.9,0.2,1.9,0.3,2.8,0.5 c0.2,0,0.4,0,0.6,0.1c0.9,0.1,1.8,0.1,2.7,0.1c0,0,0.1,0,0.1,0c0.8,0,1.7,0,2.5-0.1c0.3,0,0.5-0.1,0.8-0.1c0.6-0.1,1.2-0.2,1.9-0.3 c0.3-0.1,0.6-0.1,0.9-0.2c0.6-0.1,1.2-0.3,1.8-0.5c0.3-0.1,0.5-0.2,0.8-0.2c0.7-0.2,1.4-0.5,2.1-0.8c0.1,0,0.2-0.1,0.3-0.1l0.2-0.1 c0,0,0,0,0,0l55.1-24.2l21.5,56.2c0.1,0.2,0.2,0.4,0.2,0.6c0.1,0.3,0.3,0.6,0.4,0.9c0.2,0.5,0.4,0.9,0.7,1.4 c0.1,0.3,0.3,0.5,0.4,0.8c0.4,0.7,0.8,1.3,1.2,1.9c0,0.1,0.1,0.1,0.1,0.2c0.5,0.7,1,1.3,1.5,2c0.2,0.2,0.3,0.4,0.5,0.5 c0.4,0.5,0.8,0.9,1.3,1.4c0.2,0.2,0.3,0.3,0.5,0.5c0.6,0.5,1.2,1.1,1.8,1.6c0,0,0.1,0.1,0.1,0.1c0.7,0.5,1.4,1.1,2.1,1.5 c0.1,0,0.1,0.1,0.2,0.1c3.4,2.2,6.4,4.2,9.3,6.2c0.1,0.1,0.2,0.1,0.3,0.2c0.3,0.2,0.6,0.4,0.8,0.5c0.4,0.3,0.9,0.5,1.3,0.8 c0.3,0.2,0.6,0.3,0.9,0.5c0.5,0.2,1,0.5,1.5,0.7c0.3,0.1,0.5,0.2,0.8,0.3c0.8,0.3,1.5,0.6,2.3,0.8c0.1,0,0.1,0,0.2,0.1 c0.7,0.2,1.5,0.4,2.2,0.6c0.2,0,0.5,0.1,0.7,0.1c0.6,0.1,1.3,0.2,1.9,0.3c0.2,0,0.4,0.1,0.7,0.1c0.8,0.1,1.7,0.1,2.5,0.1 c0,0,0.1,0,0.1,0c0.2,0,0.5,0,0.7,0l60.4-1.8l-1.3,60.5c0,0.2,0,0.3,0,0.4c0,0.5,0,1.1,0,1.6c0,0.4,0,0.8,0.1,1.2 c0,0.5,0.1,1,0.2,1.5c0.1,0.4,0.1,0.8,0.2,1.2c0.1,0.5,0.2,0.9,0.3,1.4c0.1,0.4,0.2,0.9,0.3,1.3c0.1,0.4,0.3,0.8,0.4,1.2 c0.2,0.5,0.3,0.9,0.5,1.4c0.2,0.4,0.3,0.7,0.5,1.1c0.2,0.5,0.4,1,0.7,1.4c0.2,0.3,0.4,0.7,0.6,1c0.3,0.5,0.6,0.9,0.9,1.4 c0.1,0.1,0.1,0.3,0.2,0.4c2,2.9,4,5.9,6.2,9.3c0.1,0.2,0.2,0.4,0.4,0.5c0.1,0.2,0.3,0.4,0.4,0.6c0.4,0.6,0.9,1.2,1.4,1.8 c0.1,0.1,0.2,0.2,0.2,0.3c0.5,0.5,0.9,1,1.4,1.5c0.1,0.1,0.3,0.3,0.4,0.4c0.6,0.5,1.2,1.1,1.8,1.6c0.1,0.1,0.2,0.1,0.3,0.2 c0.6,0.5,1.2,0.9,1.8,1.3c0.1,0.1,0.2,0.2,0.4,0.2c0.7,0.4,1.4,0.9,2.2,1.2c0.1,0.1,0.2,0.1,0.4,0.2c0.8,0.4,1.6,0.8,2.5,1.1 l56.4,21.7L777,344.5c-0.1,0.1-0.1,0.3-0.2,0.4c-0.2,0.5-0.4,1-0.6,1.5c-0.1,0.4-0.3,0.7-0.4,1.1c-0.2,0.5-0.3,1-0.4,1.5 c-0.1,0.4-0.2,0.8-0.3,1.2c-0.1,0.5-0.2,0.9-0.2,1.4c-0.1,0.4-0.1,0.9-0.2,1.3c0,0.4-0.1,0.9-0.1,1.3c0,0.5-0.1,1-0.1,1.5 c0,0.4,0,0.8,0,1.2c0,0.5,0,1.1,0.1,1.6c0,0.4,0.1,0.7,0.1,1.1c0.1,0.6,0.2,1.1,0.3,1.6c0,0.1,0,0.3,0.1,0.4 c0.8,3.9,1.6,7.6,2.2,11.1c0,0.1,0.1,0.3,0.1,0.4c0.1,0.4,0.2,0.8,0.3,1.3c0.1,0.4,0.2,0.9,0.3,1.3c0.1,0.4,0.2,0.8,0.4,1.2 c0.2,0.4,0.3,0.9,0.5,1.3c0.1,0.4,0.3,0.7,0.5,1.1c0.2,0.5,0.4,0.9,0.7,1.4c0.2,0.3,0.3,0.6,0.5,0.9c0.3,0.5,0.6,1,0.9,1.4 c0.2,0.3,0.3,0.5,0.5,0.8c0.4,0.6,0.9,1.3,1.4,1.9c0.1,0.1,0.1,0.1,0.2,0.2c0.6,0.7,1.2,1.3,1.9,2c0,0,0.1,0.1,0.1,0.1l43.5,41.7 l-43.5,41.7c-0.1,0.1-0.2,0.2-0.3,0.3c-0.4,0.4-0.7,0.8-1.1,1.2c-0.3,0.3-0.5,0.6-0.8,0.9c-0.3,0.4-0.6,0.8-0.9,1.2 c-0.2,0.3-0.5,0.7-0.7,1c-0.3,0.4-0.5,0.8-0.8,1.2c-0.2,0.4-0.5,0.8-0.7,1.2c-0.2,0.4-0.4,0.8-0.6,1.2c-0.2,0.4-0.4,0.9-0.6,1.3 c-0.2,0.4-0.3,0.8-0.4,1.1c-0.2,0.5-0.4,1-0.5,1.5c-0.1,0.4-0.2,0.7-0.3,1.1c-0.1,0.5-0.3,1.1-0.4,1.6c0,0.1-0.1,0.3-0.1,0.4 c-0.6,3.4-1.3,7.1-2.2,11c0,0.2,0,0.3-0.1,0.5c-0.1,0.5-0.2,1.1-0.3,1.6c-0.1,0.4-0.1,0.8-0.2,1.2c0,0.5-0.1,1-0.1,1.5 c0,0.4,0,0.8,0,1.3c0,0.5,0,0.9,0.1,1.4c0,0.5,0,0.9,0.1,1.4c0,0.4,0.1,0.9,0.2,1.3c0.1,0.5,0.1,1,0.2,1.4c0.1,0.4,0.2,0.8,0.3,1.2 c0.1,0.5,0.3,1,0.4,1.5c0.1,0.4,0.2,0.7,0.4,1.1c0.2,0.5,0.4,1,0.6,1.5c0.1,0.1,0.1,0.3,0.2,0.4l24.4,55L745,591.8 c-0.1,0.1-0.3,0.1-0.4,0.2c-0.5,0.2-1,0.4-1.5,0.7c-0.3,0.2-0.7,0.3-1,0.5c-0.5,0.2-0.9,0.5-1.4,0.8c-0.3,0.2-0.7,0.4-1,0.6 c-0.4,0.3-0.8,0.6-1.2,0.9c-0.3,0.3-0.7,0.5-1,0.8c-0.4,0.3-0.7,0.6-1,0.9c-0.4,0.3-0.7,0.6-1,1c-0.3,0.3-0.6,0.6-0.9,0.9 c-0.4,0.4-0.7,0.8-1,1.2c-0.2,0.3-0.5,0.6-0.7,0.9c-0.3,0.4-0.7,0.9-1,1.3c-0.1,0.1-0.2,0.2-0.3,0.4c-2.2,3.4-4.2,6.4-6.2,9.2 c-0.1,0.1-0.2,0.3-0.2,0.4c-0.3,0.5-0.6,0.9-0.9,1.4c-0.2,0.3-0.4,0.7-0.6,1c-0.2,0.5-0.5,0.9-0.7,1.4c-0.2,0.4-0.3,0.7-0.5,1.1 c-0.2,0.4-0.3,0.9-0.5,1.4c-0.1,0.4-0.3,0.8-0.4,1.3c-0.1,0.4-0.2,0.9-0.3,1.3c-0.1,0.5-0.2,0.9-0.3,1.4c-0.1,0.4-0.1,0.8-0.2,1.2 c-0.1,0.5-0.2,1-0.2,1.5c0,0.4-0.1,0.8-0.1,1.2c0,0.5,0,1.1,0,1.6c0,0.2,0,0.3,0,0.5l1.3,60.6l-60.6-1.3c-0.2,0-0.3,0-0.4,0 c-0.5,0-1.1,0-1.6,0c-0.4,0-0.8,0-1.2,0.1c-0.5,0-1,0.1-1.5,0.2c-0.4,0.1-0.9,0.1-1.3,0.2c-0.4,0.1-0.8,0.2-1.2,0.3 c-0.5,0.1-1,0.2-1.5,0.4c-0.3,0.1-0.6,0.2-0.9,0.3c-0.6,0.2-1.1,0.4-1.7,0.6c-0.2,0.1-0.5,0.2-0.7,0.3c-0.6,0.3-1.2,0.6-1.8,0.9 c-0.2,0.1-0.4,0.2-0.6,0.3c-0.6,0.4-1.3,0.7-1.9,1.2c-0.1,0-0.1,0.1-0.2,0.1c-2.7,1.9-5.8,3.9-9.3,6.2c-0.1,0.1-0.2,0.2-0.4,0.3 c-0.5,0.3-0.9,0.6-1.3,1c-0.3,0.2-0.6,0.5-0.9,0.7c-0.4,0.3-0.8,0.7-1.2,1c-0.3,0.3-0.6,0.6-0.9,0.8c-0.3,0.3-0.7,0.7-1,1.1 c-0.3,0.3-0.6,0.7-0.9,1c-0.3,0.3-0.5,0.7-0.8,1.1c-0.3,0.4-0.6,0.8-0.8,1.2c-0.2,0.3-0.4,0.7-0.6,1c-0.3,0.4-0.5,0.9-0.8,1.4 c-0.2,0.3-0.3,0.7-0.5,1c-0.2,0.5-0.5,1-0.7,1.5c-0.1,0.1-0.1,0.3-0.2,0.4l-21.7,56.2l-55-24.6c-0.2-0.1-0.3-0.1-0.5-0.2 c-0.5-0.2-1-0.4-1.5-0.6c-0.4-0.1-0.8-0.3-1.2-0.4c-0.5-0.2-1-0.3-1.5-0.4c-0.4-0.1-0.8-0.2-1.2-0.3c-0.5-0.1-0.9-0.2-1.4-0.2 c-0.4-0.1-0.9-0.1-1.3-0.2c-0.4,0-0.9-0.1-1.3-0.1c-0.5,0-1-0.1-1.4-0.1c-0.4,0-0.8,0-1.3,0c-0.5,0-1,0-1.5,0.1 c-0.4,0-0.8,0.1-1.2,0.1c-0.5,0.1-1.1,0.2-1.6,0.3c-0.2,0-0.3,0-0.5,0.1c-3.9,0.8-7.6,1.6-11.1,2.2c-0.2,0-0.3,0.1-0.5,0.1 c-0.5,0.1-1.1,0.2-1.6,0.4c-0.4,0.1-0.7,0.2-1.1,0.3c-0.5,0.2-1,0.3-1.5,0.5c-0.4,0.1-0.8,0.3-1.2,0.4c-0.4,0.2-0.9,0.4-1.3,0.6 c-0.4,0.2-0.8,0.4-1.2,0.6c-0.4,0.2-0.8,0.4-1.1,0.7c-0.4,0.3-0.8,0.5-1.2,0.8c-0.3,0.2-0.7,0.5-1,0.7c-0.4,0.3-0.8,0.6-1.2,1 c-0.3,0.2-0.6,0.5-0.9,0.8c-0.4,0.4-0.8,0.7-1.2,1.1c-0.1,0.1-0.2,0.2-0.3,0.3l-41.6,43.8l-41.6-43.8c-0.1-0.1-0.2-0.2-0.4-0.3 c-0.4-0.4-0.8-0.8-1.2-1.1c-0.3-0.3-0.6-0.5-0.9-0.8c-0.4-0.3-0.8-0.6-1.2-0.9c-0.3-0.2-0.7-0.5-1-0.7c-0.4-0.3-0.8-0.5-1.2-0.8 c-0.4-0.2-0.8-0.5-1.2-0.7c-0.4-0.2-0.8-0.4-1.2-0.6c-0.4-0.2-0.9-0.4-1.3-0.6c-0.4-0.2-0.7-0.3-1.1-0.4c-0.5-0.2-1-0.4-1.5-0.5 c-0.4-0.1-0.7-0.2-1.1-0.3c-0.5-0.1-1.1-0.3-1.6-0.4c-0.2,0-0.3-0.1-0.5-0.1c-3.5-0.6-7.2-1.4-11.1-2.2c-0.2,0-0.3,0-0.5-0.1 c-0.5-0.1-1.1-0.2-1.6-0.3c-0.4-0.1-0.8-0.1-1.2-0.1c-0.5,0-1-0.1-1.5-0.1c-0.4,0-0.8,0-1.3,0c-0.5,0-0.9,0-1.4,0.1 c-0.5,0-0.9,0-1.4,0.1c-0.4,0-0.9,0.1-1.3,0.2c-0.5,0.1-1,0.1-1.4,0.2c-0.4,0.1-0.8,0.2-1.2,0.3c-0.5,0.1-1,0.3-1.5,0.4 c-0.4,0.1-0.7,0.2-1.1,0.4c-0.5,0.2-1,0.4-1.5,0.6c-0.2,0.1-0.3,0.1-0.5,0.2L321.7,768.8z"></path> <path class="st0" d="M733.2,429.5c0-149.6-121.7-271.3-271.3-271.3c-149.6,0-271.3,121.7-271.3,271.3 c0,149.6,121.7,271.3,271.3,271.3C611.5,700.8,733.2,579.1,733.2,429.5z M246.6,429.5c0-118.7,96.6-215.2,215.2-215.2 c118.7,0,215.2,96.6,215.2,215.2c0,118.7-96.6,215.2-215.2,215.2C343.2,644.7,246.6,548.2,246.6,429.5z"></path> <path class="st0" d="M408,853.1c-13.4-7.8-30.6-3.2-38.3,10.2l-146,252.1l-23.5-71.9c0-0.1-0.1-0.2-0.1-0.4 c-6.3-18.8-24.9-29.6-44.4-25.6c-0.1,0-0.3,0-0.4,0.1l-74.3,15.6l132.8-230.1c7.7-13.4,3.1-30.6-10.3-38.3 c-13.4-7.7-30.6-3.1-38.3,10.3L13.2,1038.2c0,0,0,0,0,0c-7.8,13.6-7.1,30.3,1.9,42.6c7.4,10.2,19.2,16,31.6,16 c2.7,0,5.4-0.3,8.1-0.8c0,0,0,0,0.1,0l96.8-20.4l30.7,93.9c0,0.1,0.1,0.2,0.1,0.3c4.9,14.8,17.3,24.9,32.3,26.5 c1.4,0.1,2.7,0.2,4.1,0.2c13.8,0,26.7-7.3,33.9-19.3c0.1-0.1,0.2-0.3,0.3-0.4l0,0c0,0,0,0,0,0c0,0,0,0,0,0l165.2-285.3 C425.9,878,421.4,860.9,408,853.1z"></path> <path class="st0" d="M911,1038.2C911,1038.2,911,1038.2,911,1038.2C911,1038.2,911,1038.2,911,1038.2L760.3,777.1 c-7.7-13.4-24.9-18-38.3-10.3c-13.4,7.7-18,24.9-10.3,38.3l131.6,228l-74.2-15.6c0,0,0,0,0,0c0,0,0,0,0,0l-0.1,0 c-0.1,0-0.2,0-0.3-0.1c-19.5-4-38.1,6.8-44.5,25.6c0,0.1-0.1,0.2-0.1,0.4l-23.5,71.9l-146-252.1c-7.8-13.4-24.9-18-38.3-10.2 c-13.4,7.8-18,24.9-10.2,38.3l165.2,285.3c0.1,0.1,0.2,0.2,0.2,0.4c7.2,12.2,19.7,19.4,33.4,19.4c1.4,0,2.7-0.1,4.1-0.2 c15.3-1.6,27.8-11.7,32.7-26.4c0-0.1,0.1-0.2,0.1-0.4l30.7-93.9l96.8,20.4c0.3,0.1,0.7,0.1,1,0.2c2.4,0.5,4.9,0.7,7.3,0.7 c12.1,0,23.5-5.7,31-16C917.8,1068.3,918.7,1051.6,911,1038.2z"></path> </g> </svg> 